<?xml version="1.0" encoding="utf-8"?>
<svg xmlns="http://www.w3.org/2000/svg" xmlns:xlink="http://www.w3.org/1999/xlink" xml:space="preserve" width="792" height="792" viewBox="0 0 792 792"><rect width="792" height="792" fill="#ffffff" x="0" y="0"/><g fill="#000000">
<g transform="translate(264,48) scale(4.12)"><rect width="6" height="6"/></g>
<g transform="translate(312,48) scale(4.12)"><rect width="6" height="6"/></g>
<g transform="translate(336,48) scale(4.12)"><rect width="6" height="6"/></g>
<g transform="translate(360,48) scale(4.12)"><rect width="6" height="6"/></g>
<g transform="translate(504,48) scale(4.12)"><rect width="6" height="6"/></g>
<g transform="translate(528,48) scale(4.12)"><rect width="6" height="6"/></g>
<g transform="translate(264,72) scale(4.12)"><rect width="6" height="6"/></g>
<g transform="translate(336,72) scale(4.12)"><rect width="6" height="6"/></g>
<g transform="translate(384,72) scale(4.12)"><rect width="6" height="6"/></g>
<g transform="translate(408,72) scale(4.12)"><rect width="6" height="6"/></g>
<g transform="translate(240,96) scale(4.12)"><rect width="6" height="6"/></g>
<g transform="translate(264,96) scale(4.12)"><rect width="6" height="6"/></g>
<g transform="translate(288,96) scale(4.12)"><rect width="6" height="6"/></g>
<g transform="translate(312,96) scale(4.12)"><rect width="6" height="6"/></g>
<g transform="translate(384,96) scale(4.12)"><rect width="6" height="6"/></g>
<g transform="translate(408,96) scale(4.12)"><rect width="6" height="6"/></g>
<g transform="translate(240,120) scale(4.12)"><rect width="6" height="6"/></g>
<g transform="translate(312,120) scale(4.12)"><rect width="6" height="6"/></g>
<g transform="translate(360,120) scale(4.12)"><rect width="6" height="6"/></g>
<g transform="translate(384,120) scale(4.12)"><rect width="6" height="6"/></g>
<g transform="translate(408,120) scale(4.12)"><rect width="6" height="6"/></g>
<g transform="translate(432,120) scale(4.12)"><rect width="6" height="6"/></g>
<g transform="translate(456,120) scale(4.12)"><rect width="6" height="6"/></g>
<g transform="translate(504,120) scale(4.12)"><rect width="6" height="6"/></g>
<g transform="translate(240,144) scale(4.12)"><rect width="6" height="6"/></g>
<g transform="translate(288,144) scale(4.12)"><rect width="6" height="6"/></g>
<g transform="translate(312,144) scale(4.12)"><rect width="6" height="6"/></g>
<g transform="translate(336,144) scale(4.12)"><rect width="6" height="6"/></g>
<g transform="translate(384,144) scale(4.12)"><rect width="6" height="6"/></g>
<g transform="translate(432,144) scale(4.12)"><rect width="6" height="6"/></g>
<g transform="translate(480,144) scale(4.12)"><rect width="6" height="6"/></g>
<g transform="translate(504,144) scale(4.12)"><rect width="6" height="6"/></g>
<g transform="translate(528,144) scale(4.12)"><rect width="6" height="6"/></g>
<g transform="translate(240,168) scale(4.12)"><rect width="6" height="6"/></g>
<g transform="translate(288,168) scale(4.12)"><rect width="6" height="6"/></g>
<g transform="translate(312,168) scale(4.12)"><rect width="6" height="6"/></g>
<g transform="translate(408,168) scale(4.12)"><rect width="6" height="6"/></g>
<g transform="translate(432,168) scale(4.12)"><rect width="6" height="6"/></g>
<g transform="translate(456,168) scale(4.12)"><rect width="6" height="6"/></g>
<g transform="translate(480,168) scale(4.12)"><rect width="6" height="6"/></g>
<g transform="translate(240,192) scale(4.12)"><rect width="6" height="6"/></g>
<g transform="translate(288,192) scale(4.12)"><rect width="6" height="6"/></g>
<g transform="translate(336,192) scale(4.12)"><rect width="6" height="6"/></g>
<g transform="translate(384,192) scale(4.12)"><rect width="6" height="6"/></g>
<g transform="translate(432,192) scale(4.12)"><rect width="6" height="6"/></g>
<g transform="translate(480,192) scale(4.12)"><rect width="6" height="6"/></g>
<g transform="translate(528,192) scale(4.12)"><rect width="6" height="6"/></g>
<g transform="translate(240,216) scale(4.12)"><rect width="6" height="6"/></g>
<g transform="translate(264,216) scale(4.12)"><rect width="6" height="6"/></g>
<g transform="translate(288,216) scale(4.12)"><rect width="6" height="6"/></g>
<g transform="translate(432,216) scale(4.12)"><rect width="6" height="6"/></g>
<g transform="translate(480,216) scale(4.12)"><rect width="6" height="6"/></g>
<g transform="translate(528,216) scale(4.12)"><rect width="6" height="6"/></g>
<g transform="translate(48,240) scale(4.12)"><rect width="6" height="6"/></g>
<g transform="translate(96,240) scale(4.12)"><rect width="6" height="6"/></g>
<g transform="translate(120,240) scale(4.12)"><rect width="6" height="6"/></g>
<g transform="translate(144,240) scale(4.12)"><rect width="6" height="6"/></g>
<g transform="translate(168,240) scale(4.12)"><rect width="6" height="6"/></g>
<g transform="translate(192,240) scale(4.12)"><rect width="6" height="6"/></g>
<g transform="translate(264,240) scale(4.12)"><rect width="6" height="6"/></g>
<g transform="translate(288,240) scale(4.12)"><rect width="6" height="6"/></g>
<g transform="translate(336,240) scale(4.12)"><rect width="6" height="6"/></g>
<g transform="translate(360,240) scale(4.12)"><rect width="6" height="6"/></g>
<g transform="translate(384,240) scale(4.12)"><rect width="6" height="6"/></g>
<g transform="translate(456,240) scale(4.12)"><rect width="6" height="6"/></g>
<g transform="translate(480,240) scale(4.12)"><rect width="6" height="6"/></g>
<g transform="translate(528,240) scale(4.12)"><rect width="6" height="6"/></g>
<g transform="translate(576,240) scale(4.12)"><rect width="6" height="6"/></g>
<g transform="translate(600,240) scale(4.12)"><rect width="6" height="6"/></g>
<g transform="translate(624,240) scale(4.12)"><rect width="6" height="6"/></g>
<g transform="translate(648,240) scale(4.12)"><rect width="6" height="6"/></g>
<g transform="translate(672,240) scale(4.12)"><rect width="6" height="6"/></g>
<g transform="translate(72,264) scale(4.12)"><rect width="6" height="6"/></g>
<g transform="translate(96,264) scale(4.12)"><rect width="6" height="6"/></g>
<g transform="translate(144,264) scale(4.12)"><rect width="6" height="6"/></g>
<g transform="translate(312,264) scale(4.12)"><rect width="6" height="6"/></g>
<g transform="translate(432,264) scale(4.12)"><rect width="6" height="6"/></g>
<g transform="translate(456,264) scale(4.12)"><rect width="6" height="6"/></g>
<g transform="translate(480,264) scale(4.12)"><rect width="6" height="6"/></g>
<g transform="translate(504,264) scale(4.12)"><rect width="6" height="6"/></g>
<g transform="translate(528,264) scale(4.12)"><rect width="6" height="6"/></g>
<g transform="translate(576,264) scale(4.12)"><rect width="6" height="6"/></g>
<g transform="translate(600,264) scale(4.12)"><rect width="6" height="6"/></g>
<g transform="translate(624,264) scale(4.12)"><rect width="6" height="6"/></g>
<g transform="translate(720,264) scale(4.12)"><rect width="6" height="6"/></g>
<g transform="translate(96,288) scale(4.12)"><rect width="6" height="6"/></g>
<g transform="translate(120,288) scale(4.12)"><rect width="6" height="6"/></g>
<g transform="translate(144,288) scale(4.12)"><rect width="6" height="6"/></g>
<g transform="translate(168,288) scale(4.12)"><rect width="6" height="6"/></g>
<g transform="translate(192,288) scale(4.12)"><rect width="6" height="6"/></g>
<g transform="translate(240,288) scale(4.12)"><rect width="6" height="6"/></g>
<g transform="translate(264,288) scale(4.12)"><rect width="6" height="6"/></g>
<g transform="translate(336,288) scale(4.12)"><rect width="6" height="6"/></g>
<g transform="translate(360,288) scale(4.12)"><rect width="6" height="6"/></g>
<g transform="translate(384,288) scale(4.12)"><rect width="6" height="6"/></g>
<g transform="translate(408,288) scale(4.12)"><rect width="6" height="6"/></g>
<g transform="translate(456,288) scale(4.12)"><rect width="6" height="6"/></g>
<g transform="translate(528,288) scale(4.12)"><rect width="6" height="6"/></g>
<g transform="translate(600,288) scale(4.12)"><rect width="6" height="6"/></g>
<g transform="translate(48,312) scale(4.12)"><rect width="6" height="6"/></g>
<g transform="translate(96,312) scale(4.12)"><rect width="6" height="6"/></g>
<g transform="translate(144,312) scale(4.12)"><rect width="6" height="6"/></g>
<g transform="translate(168,312) scale(4.12)"><rect width="6" height="6"/></g>
<g transform="translate(216,312) scale(4.12)"><rect width="6" height="6"/></g>
<g transform="translate(240,312) scale(4.12)"><rect width="6" height="6"/></g>
<g transform="translate(264,312) scale(4.12)"><rect width="6" height="6"/></g>
<g transform="translate(288,312) scale(4.12)"><rect width="6" height="6"/></g>
<g transform="translate(384,312) scale(4.12)"><rect width="6" height="6"/></g>
<g transform="translate(408,312) scale(4.12)"><rect width="6" height="6"/></g>
<g transform="translate(480,312) scale(4.12)"><rect width="6" height="6"/></g>
<g transform="translate(576,312) scale(4.12)"><rect width="6" height="6"/></g>
<g transform="translate(624,312) scale(4.12)"><rect width="6" height="6"/></g>
<g transform="translate(648,312) scale(4.12)"><rect width="6" height="6"/></g>
<g transform="translate(696,312) scale(4.12)"><rect width="6" height="6"/></g>
<g transform="translate(96,336) scale(4.12)"><rect width="6" height="6"/></g>
<g transform="translate(120,336) scale(4.12)"><rect width="6" height="6"/></g>
<g transform="translate(144,336) scale(4.12)"><rect width="6" height="6"/></g>
<g transform="translate(192,336) scale(4.12)"><rect width="6" height="6"/></g>
<g transform="translate(216,336) scale(4.12)"><rect width="6" height="6"/></g>
<g transform="translate(240,336) scale(4.12)"><rect width="6" height="6"/></g>
<g transform="translate(288,336) scale(4.12)"><rect width="6" height="6"/></g>
<g transform="translate(312,336) scale(4.12)"><rect width="6" height="6"/></g>
<g transform="translate(336,336) scale(4.12)"><rect width="6" height="6"/></g>
<g transform="translate(360,336) scale(4.12)"><rect width="6" height="6"/></g>
<g transform="translate(384,336) scale(4.12)"><rect width="6" height="6"/></g>
<g transform="translate(456,336) scale(4.12)"><rect width="6" height="6"/></g>
<g transform="translate(504,336) scale(4.12)"><rect width="6" height="6"/></g>
<g transform="translate(600,336) scale(4.12)"><rect width="6" height="6"/></g>
<g transform="translate(648,336) scale(4.12)"><rect width="6" height="6"/></g>
<g transform="translate(672,336) scale(4.12)"><rect width="6" height="6"/></g>
<g transform="translate(48,360) scale(4.12)"><rect width="6" height="6"/></g>
<g transform="translate(72,360) scale(4.12)"><rect width="6" height="6"/></g>
<g transform="translate(96,360) scale(4.12)"><rect width="6" height="6"/></g>
<g transform="translate(144,360) scale(4.12)"><rect width="6" height="6"/></g>
<g transform="translate(168,360) scale(4.12)"><rect width="6" height="6"/></g>
<g transform="translate(240,360) scale(4.12)"><rect width="6" height="6"/></g>
<g transform="translate(312,360) scale(4.12)"><rect width="6" height="6"/></g>
<g transform="translate(336,360) scale(4.12)"><rect width="6" height="6"/></g>
<g transform="translate(360,360) scale(4.12)"><rect width="6" height="6"/></g>
<g transform="translate(432,360) scale(4.12)"><rect width="6" height="6"/></g>
<g transform="translate(456,360) scale(4.12)"><rect width="6" height="6"/></g>
<g transform="translate(480,360) scale(4.12)"><rect width="6" height="6"/></g>
<g transform="translate(504,360) scale(4.12)"><rect width="6" height="6"/></g>
<g transform="translate(528,360) scale(4.12)"><rect width="6" height="6"/></g>
<g transform="translate(552,360) scale(4.12)"><rect width="6" height="6"/></g>
<g transform="translate(576,360) scale(4.12)"><rect width="6" height="6"/></g>
<g transform="translate(600,360) scale(4.12)"><rect width="6" height="6"/></g>
<g transform="translate(624,360) scale(4.12)"><rect width="6" height="6"/></g>
<g transform="translate(720,360) scale(4.12)"><rect width="6" height="6"/></g>
<g transform="translate(96,384) scale(4.12)"><rect width="6" height="6"/></g>
<g transform="translate(192,384) scale(4.12)"><rect width="6" height="6"/></g>
<g transform="translate(216,384) scale(4.12)"><rect width="6" height="6"/></g>
<g transform="translate(264,384) scale(4.12)"><rect width="6" height="6"/></g>
<g transform="translate(336,384) scale(4.12)"><rect width="6" height="6"/></g>
<g transform="translate(408,384) scale(4.12)"><rect width="6" height="6"/></g>
<g transform="translate(432,384) scale(4.12)"><rect width="6" height="6"/></g>
<g transform="translate(480,384) scale(4.12)"><rect width="6" height="6"/></g>
<g transform="translate(528,384) scale(4.12)"><rect width="6" height="6"/></g>
<g transform="translate(600,384) scale(4.12)"><rect width="6" height="6"/></g>
<g transform="translate(624,384) scale(4.12)"><rect width="6" height="6"/></g>
<g transform="translate(648,384) scale(4.12)"><rect width="6" height="6"/></g>
<g transform="translate(672,384) scale(4.12)"><rect width="6" height="6"/></g>
<g transform="translate(48,408) scale(4.12)"><rect width="6" height="6"/></g>
<g transform="translate(72,408) scale(4.12)"><rect width="6" height="6"/></g>
<g transform="translate(240,408) scale(4.12)"><rect width="6" height="6"/></g>
<g transform="translate(264,408) scale(4.12)"><rect width="6" height="6"/></g>
<g transform="translate(288,408) scale(4.12)"><rect width="6" height="6"/></g>
<g transform="translate(336,408) scale(4.12)"><rect width="6" height="6"/></g>
<g transform="translate(384,408) scale(4.12)"><rect width="6" height="6"/></g>
<g transform="translate(504,408) scale(4.12)"><rect width="6" height="6"/></g>
<g transform="translate(528,408) scale(4.12)"><rect width="6" height="6"/></g>
<g transform="translate(696,408) scale(4.12)"><rect width="6" height="6"/></g>
<g transform="translate(48,432) scale(4.12)"><rect width="6" height="6"/></g>
<g transform="translate(192,432) scale(4.12)"><rect width="6" height="6"/></g>
<g transform="translate(216,432) scale(4.12)"><rect width="6" height="6"/></g>
<g transform="translate(240,432) scale(4.12)"><rect width="6" height="6"/></g>
<g transform="translate(264,432) scale(4.12)"><rect width="6" height="6"/></g>
<g transform="translate(288,432) scale(4.12)"><rect width="6" height="6"/></g>
<g transform="translate(336,432) scale(4.12)"><rect width="6" height="6"/></g>
<g transform="translate(360,432) scale(4.12)"><rect width="6" height="6"/></g>
<g transform="translate(384,432) scale(4.12)"><rect width="6" height="6"/></g>
<g transform="translate(408,432) scale(4.12)"><rect width="6" height="6"/></g>
<g transform="translate(432,432) scale(4.12)"><rect width="6" height="6"/></g>
<g transform="translate(456,432) scale(4.12)"><rect width="6" height="6"/></g>
<g transform="translate(648,432) scale(4.12)"><rect width="6" height="6"/></g>
<g transform="translate(672,432) scale(4.12)"><rect width="6" height="6"/></g>
<g transform="translate(48,456) scale(4.12)"><rect width="6" height="6"/></g>
<g transform="translate(72,456) scale(4.12)"><rect width="6" height="6"/></g>
<g transform="translate(96,456) scale(4.12)"><rect width="6" height="6"/></g>
<g transform="translate(120,456) scale(4.12)"><rect width="6" height="6"/></g>
<g transform="translate(168,456) scale(4.12)"><rect width="6" height="6"/></g>
<g transform="translate(264,456) scale(4.12)"><rect width="6" height="6"/></g>
<g transform="translate(384,456) scale(4.12)"><rect width="6" height="6"/></g>
<g transform="translate(432,456) scale(4.12)"><rect width="6" height="6"/></g>
<g transform="translate(456,456) scale(4.12)"><rect width="6" height="6"/></g>
<g transform="translate(480,456) scale(4.12)"><rect width="6" height="6"/></g>
<g transform="translate(504,456) scale(4.12)"><rect width="6" height="6"/></g>
<g transform="translate(528,456) scale(4.12)"><rect width="6" height="6"/></g>
<g transform="translate(552,456) scale(4.12)"><rect width="6" height="6"/></g>
<g transform="translate(576,456) scale(4.12)"><rect width="6" height="6"/></g>
<g transform="translate(600,456) scale(4.12)"><rect width="6" height="6"/></g>
<g transform="translate(624,456) scale(4.12)"><rect width="6" height="6"/></g>
<g transform="translate(672,456) scale(4.12)"><rect width="6" height="6"/></g>
<g transform="translate(720,456) scale(4.12)"><rect width="6" height="6"/></g>
<g transform="translate(48,480) scale(4.12)"><rect width="6" height="6"/></g>
<g transform="translate(96,480) scale(4.12)"><rect width="6" height="6"/></g>
<g transform="translate(120,480) scale(4.12)"><rect width="6" height="6"/></g>
<g transform="translate(192,480) scale(4.12)"><rect width="6" height="6"/></g>
<g transform="translate(264,480) scale(4.12)"><rect width="6" height="6"/></g>
<g transform="translate(288,480) scale(4.12)"><rect width="6" height="6"/></g>
<g transform="translate(312,480) scale(4.12)"><rect width="6" height="6"/></g>
<g transform="translate(408,480) scale(4.12)"><rect width="6" height="6"/></g>
<g transform="translate(432,480) scale(4.12)"><rect width="6" height="6"/></g>
<g transform="translate(456,480) scale(4.12)"><rect width="6" height="6"/></g>
<g transform="translate(672,480) scale(4.12)"><rect width="6" height="6"/></g>
<g transform="translate(48,504) scale(4.12)"><rect width="6" height="6"/></g>
<g transform="translate(120,504) scale(4.12)"><rect width="6" height="6"/></g>
<g transform="translate(144,504) scale(4.12)"><rect width="6" height="6"/></g>
<g transform="translate(168,504) scale(4.12)"><rect width="6" height="6"/></g>
<g transform="translate(288,504) scale(4.12)"><rect width="6" height="6"/></g>
<g transform="translate(504,504) scale(4.12)"><rect width="6" height="6"/></g>
<g transform="translate(528,504) scale(4.12)"><rect width="6" height="6"/></g>
<g transform="translate(552,504) scale(4.12)"><rect width="6" height="6"/></g>
<g transform="translate(624,504) scale(4.12)"><rect width="6" height="6"/></g>
<g transform="translate(696,504) scale(4.12)"><rect width="6" height="6"/></g>
<g transform="translate(48,528) scale(4.12)"><rect width="6" height="6"/></g>
<g transform="translate(96,528) scale(4.12)"><rect width="6" height="6"/></g>
<g transform="translate(120,528) scale(4.12)"><rect width="6" height="6"/></g>
<g transform="translate(144,528) scale(4.12)"><rect width="6" height="6"/></g>
<g transform="translate(168,528) scale(4.12)"><rect width="6" height="6"/></g>
<g transform="translate(192,528) scale(4.12)"><rect width="6" height="6"/></g>
<g transform="translate(216,528) scale(4.12)"><rect width="6" height="6"/></g>
<g transform="translate(264,528) scale(4.12)"><rect width="6" height="6"/></g>
<g transform="translate(336,528) scale(4.12)"><rect width="6" height="6"/></g>
<g transform="translate(456,528) scale(4.12)"><rect width="6" height="6"/></g>
<g transform="translate(480,528) scale(4.12)"><rect width="6" height="6"/></g>
<g transform="translate(504,528) scale(4.12)"><rect width="6" height="6"/></g>
<g transform="translate(528,528) scale(4.12)"><rect width="6" height="6"/></g>
<g transform="translate(552,528) scale(4.12)"><rect width="6" height="6"/></g>
<g transform="translate(576,528) scale(4.12)"><rect width="6" height="6"/></g>
<g transform="translate(600,528) scale(4.12)"><rect width="6" height="6"/></g>
<g transform="translate(624,528) scale(4.12)"><rect width="6" height="6"/></g>
<g transform="translate(672,528) scale(4.12)"><rect width="6" height="6"/></g>
<g transform="translate(696,528) scale(4.12)"><rect width="6" height="6"/></g>
<g transform="translate(720,528) scale(4.12)"><rect width="6" height="6"/></g>
<g transform="translate(240,552) scale(4.12)"><rect width="6" height="6"/></g>
<g transform="translate(288,552) scale(4.12)"><rect width="6" height="6"/></g>
<g transform="translate(336,552) scale(4.12)"><rect width="6" height="6"/></g>
<g transform="translate(360,552) scale(4.12)"><rect width="6" height="6"/></g>
<g transform="translate(432,552) scale(4.12)"><rect width="6" height="6"/></g>
<g transform="translate(456,552) scale(4.12)"><rect width="6" height="6"/></g>
<g transform="translate(480,552) scale(4.12)"><rect width="6" height="6"/></g>
<g transform="translate(528,552) scale(4.12)"><rect width="6" height="6"/></g>
<g transform="translate(624,552) scale(4.12)"><rect width="6" height="6"/></g>
<g transform="translate(648,552) scale(4.12)"><rect width="6" height="6"/></g>
<g transform="translate(672,552) scale(4.12)"><rect width="6" height="6"/></g>
<g transform="translate(696,552) scale(4.12)"><rect width="6" height="6"/></g>
<g transform="translate(720,552) scale(4.12)"><rect width="6" height="6"/></g>
<g transform="translate(264,576) scale(4.12)"><rect width="6" height="6"/></g>
<g transform="translate(288,576) scale(4.12)"><rect width="6" height="6"/></g>
<g transform="translate(312,576) scale(4.12)"><rect width="6" height="6"/></g>
<g transform="translate(360,576) scale(4.12)"><rect width="6" height="6"/></g>
<g transform="translate(384,576) scale(4.12)"><rect width="6" height="6"/></g>
<g transform="translate(408,576) scale(4.12)"><rect width="6" height="6"/></g>
<g transform="translate(456,576) scale(4.12)"><rect width="6" height="6"/></g>
<g transform="translate(504,576) scale(4.12)"><rect width="6" height="6"/></g>
<g transform="translate(528,576) scale(4.12)"><rect width="6" height="6"/></g>
<g transform="translate(576,576) scale(4.12)"><rect width="6" height="6"/></g>
<g transform="translate(624,576) scale(4.12)"><rect width="6" height="6"/></g>
<g transform="translate(648,576) scale(4.12)"><rect width="6" height="6"/></g>
<g transform="translate(672,576) scale(4.12)"><rect width="6" height="6"/></g>
<g transform="translate(240,600) scale(4.12)"><rect width="6" height="6"/></g>
<g transform="translate(288,600) scale(4.12)"><rect width="6" height="6"/></g>
<g transform="translate(360,600) scale(4.12)"><rect width="6" height="6"/></g>
<g transform="translate(528,600) scale(4.12)"><rect width="6" height="6"/></g>
<g transform="translate(624,600) scale(4.12)"><rect width="6" height="6"/></g>
<g transform="translate(240,624) scale(4.12)"><rect width="6" height="6"/></g>
<g transform="translate(384,624) scale(4.12)"><rect width="6" height="6"/></g>
<g transform="translate(408,624) scale(4.12)"><rect width="6" height="6"/></g>
<g transform="translate(432,624) scale(4.12)"><rect width="6" height="6"/></g>
<g transform="translate(456,624) scale(4.12)"><rect width="6" height="6"/></g>
<g transform="translate(528,624) scale(4.12)"><rect width="6" height="6"/></g>
<g transform="translate(552,624) scale(4.12)"><rect width="6" height="6"/></g>
<g transform="translate(576,624) scale(4.12)"><rect width="6" height="6"/></g>
<g transform="translate(600,624) scale(4.12)"><rect width="6" height="6"/></g>
<g transform="translate(624,624) scale(4.12)"><rect width="6" height="6"/></g>
<g transform="translate(672,624) scale(4.12)"><rect width="6" height="6"/></g>
<g transform="translate(696,624) scale(4.12)"><rect width="6" height="6"/></g>
<g transform="translate(720,624) scale(4.12)"><rect width="6" height="6"/></g>
<g transform="translate(240,648) scale(4.12)"><rect width="6" height="6"/></g>
<g transform="translate(264,648) scale(4.12)"><rect width="6" height="6"/></g>
<g transform="translate(288,648) scale(4.12)"><rect width="6" height="6"/></g>
<g transform="translate(312,648) scale(4.12)"><rect width="6" height="6"/></g>
<g transform="translate(336,648) scale(4.12)"><rect width="6" height="6"/></g>
<g transform="translate(432,648) scale(4.12)"><rect width="6" height="6"/></g>
<g transform="translate(528,648) scale(4.12)"><rect width="6" height="6"/></g>
<g transform="translate(648,648) scale(4.12)"><rect width="6" height="6"/></g>
<g transform="translate(672,648) scale(4.12)"><rect width="6" height="6"/></g>
<g transform="translate(696,648) scale(4.12)"><rect width="6" height="6"/></g>
<g transform="translate(720,648) scale(4.12)"><rect width="6" height="6"/></g>
<g transform="translate(240,672) scale(4.12)"><rect width="6" height="6"/></g>
<g transform="translate(264,672) scale(4.12)"><rect width="6" height="6"/></g>
<g transform="translate(288,672) scale(4.12)"><rect width="6" height="6"/></g>
<g transform="translate(408,672) scale(4.12)"><rect width="6" height="6"/></g>
<g transform="translate(432,672) scale(4.12)"><rect width="6" height="6"/></g>
<g transform="translate(456,672) scale(4.12)"><rect width="6" height="6"/></g>
<g transform="translate(504,672) scale(4.12)"><rect width="6" height="6"/></g>
<g transform="translate(528,672) scale(4.12)"><rect width="6" height="6"/></g>
<g transform="translate(552,672) scale(4.12)"><rect width="6" height="6"/></g>
<g transform="translate(576,672) scale(4.12)"><rect width="6" height="6"/></g>
<g transform="translate(600,672) scale(4.12)"><rect width="6" height="6"/></g>
<g transform="translate(624,672) scale(4.12)"><rect width="6" height="6"/></g>
<g transform="translate(648,672) scale(4.12)"><rect width="6" height="6"/></g>
<g transform="translate(672,672) scale(4.12)"><rect width="6" height="6"/></g>
<g transform="translate(696,672) scale(4.12)"><rect width="6" height="6"/></g>
<g transform="translate(264,696) scale(4.12)"><rect width="6" height="6"/></g>
<g transform="translate(288,696) scale(4.12)"><rect width="6" height="6"/></g>
<g transform="translate(336,696) scale(4.12)"><rect width="6" height="6"/></g>
<g transform="translate(384,696) scale(4.12)"><rect width="6" height="6"/></g>
<g transform="translate(432,696) scale(4.12)"><rect width="6" height="6"/></g>
<g transform="translate(528,696) scale(4.12)"><rect width="6" height="6"/></g>
<g transform="translate(648,696) scale(4.12)"><rect width="6" height="6"/></g>
<g transform="translate(696,696) scale(4.12)"><rect width="6" height="6"/></g>
<g transform="translate(240,720) scale(4.12)"><rect width="6" height="6"/></g>
<g transform="translate(264,720) scale(4.12)"><rect width="6" height="6"/></g>
<g transform="translate(288,720) scale(4.12)"><rect width="6" height="6"/></g>
<g transform="translate(336,720) scale(4.12)"><rect width="6" height="6"/></g>
<g transform="translate(384,720) scale(4.12)"><rect width="6" height="6"/></g>
<g transform="translate(456,720) scale(4.12)"><rect width="6" height="6"/></g>
<g transform="translate(504,720) scale(4.12)"><rect width="6" height="6"/></g>
<g transform="translate(600,720) scale(4.12)"><rect width="6" height="6"/></g>
<g transform="translate(672,720) scale(4.12)"><rect width="6" height="6"/></g>
<g transform="translate(48,48)"><g transform="scale(12)"><path d="M0,0v14h14V0H0z M12,12H2V2h10V12z"/></g></g>
<g transform="translate(576,48)"><g transform="scale(12)"><path d="M0,0v14h14V0H0z M12,12H2V2h10V12z"/></g></g>
<g transform="translate(48,576)"><g transform="scale(12)"><path d="M0,0v14h14V0H0z M12,12H2V2h10V12z"/></g></g>
<g transform="translate(96,96)"><g transform="scale(12)"><rect width="6" height="6"/></g></g>
<g transform="translate(624,96)"><g transform="scale(12)"><rect width="6" height="6"/></g></g>
<g transform="translate(96,624)"><g transform="scale(12)"><rect width="6" height="6"/></g></g>
</g></svg>
